Coordinates
version=1
nRows=8
nColumns=36
inDegrees=yes

Units are S.I. units (second, meters, Newtons, ...)
If the header above contains a line with 'inDegrees', this indicates whether rotational values are in degrees (yes) or radians (no).

endheader
time	pelvis_tilt	pelvis_list	pelvis_rotation	pelvis_tx	pelvis_ty	pelvis_tz	hip_flexion_r	hip_adduction_r	hip_rotation_r	knee_angle_r	knee_angle_r_beta	ankle_angle_r	subtalar_angle_r	mtp_angle_r	hip_flexion_l	hip_adduction_l	hip_rotation_l	knee_angle_l	knee_angle_l_beta	ankle_angle_l	subtalar_angle_l	mtp_angle_l	lumbar_extension	lumbar_bending	lumbar_rotation	arm_flex_r	arm_add_r	arm_rot_r	elbow_flex_r	pro_sup_r	arm_flex_l	arm_add_l	arm_rot_l	elbow_flex_l	pro_sup_l
      3.53333330	     -5.19788486	     -8.04798261	      6.17281090	      0.86016398	      0.98649737	     -0.01071906	     14.40361925	      6.06415286	      5.27508872	      7.61670834	      0.13293664	      4.05692518	     -8.49200262	     -7.49999861	      6.14981762	      0.43056791	      6.92627134	      4.87084712	      0.08501232	      7.30501248	     -1.68717818	     -7.49999861	      0.21802045	      1.43000614	     -0.13360936	     41.65242486	      8.66691974	     61.71417679	    126.55804203	     84.36780103	     40.95235878	     -0.17286875	     77.52516070	    123.34479850	     54.64180549
      3.55000000	     -5.17078726	     -7.97808422	      6.14381810	      0.85993134	      0.98672182	     -0.01073994	     14.28564657	      5.93340613	      5.26419454	      7.58940823	      0.13246016	      3.93019067	     -8.15690244	     -7.49999875	      6.27885178	      0.47636611	      6.88525731	      5.21790024	      0.09106954	      7.51245729	     -1.71035834	     -7.49999875	      0.30121332	      1.21125460	     -0.26043811	     41.89623580	      8.69183458	     62.14760253	    126.62554498	     83.30498382	     40.94172317	     -0.23187292	     77.39579753	    123.34341274	     54.98658882
      3.56666670	     -5.16426832	     -7.91829610	      6.09413496	      0.85527941	      0.98619837	     -0.00773498	     14.32644309	      5.86247159	      5.31164588	      7.62397076	      0.13306339	      3.76091873	     -8.09045699	     -7.49999876	      6.53951362	      0.50839591	      6.86431053	      5.66148814	      0.09881161	      7.79444673	     -1.86646717	     -7.49999876	      0.26780753	      0.94190633	     -0.23094134	     42.33296313	      8.64208481	     62.28969342	    126.54142250	     83.40817956	     41.13881076	     -0.26800144	     77.27531626	    123.31946310	     54.95917882
      3.58333330	     -5.12875386	     -7.81294100	      6.07964510	      0.85930768	      0.98701800	     -0.00462564	     14.22021496	      5.81730527	      5.31039945	      7.48219980	      0.13058902	      3.61579471	     -8.03136868	     -7.49999877	      6.64962040	      0.48379913	      6.81973825	      5.97208331	      0.10423252	      7.94542468	     -1.94655435	     -7.49999877	      0.27263206	      0.51507460	     -0.14053620	     42.33917970	      8.74708791	     62.38808610	    126.48662012	     83.45022410	     41.08044321	     -0.36808849	     77.25888232	    123.35563004	     54.95295850
      3.60000000	     -5.19501804	     -7.78768271	      6.08581189	      0.85458995	      0.98639253	     -0.00168224	     14.37216333	      5.84108391	      5.14487461	      7.40823826	      0.12929815	      3.39673025	     -8.03968711	     -7.49999877	      6.90427490	      0.41340436	      6.74687655	      6.17691892	      0.10780757	      8.09424604	     -1.94302351	     -7.49999877	      0.29074439	      0.21785499	     -0.09707774	     42.67149071	      8.90693669	     62.39412740	    126.38917743	     83.49875299	     41.35245250	     -0.54934701	     77.16888398	    123.37481837	     54.94142588
      3.61666670	     -5.23232866	     -7.79924276	      6.20653013	      0.85438822	      0.98649550	     -0.00199397	     14.51284894	      5.89035757	      5.00512325	      7.34005368	      0.12810810	      3.11191325	     -8.24392254	     -7.49999890	      7.17338734	      0.31071645	      6.58140520	      6.43390523	      0.11229283	      8.36688687	     -1.62153916	     -7.49999890	      0.33511669	      0.02104735	     -0.40423973	     43.11225533	      9.24768995	     62.75993461	    125.92966910	     82.85383838	     41.50528819	     -0.70675688	     77.12444756	    123.42841516	     55.20048947
      3.63333330	     -5.21432062	     -7.76766268	      6.28519002	      0.85461243	      0.98626663	     -0.00219050	     14.57240775	      5.81104480	      4.55547154	      7.38693806	      0.12892639	      2.89233651	     -8.41675795	     -7.49999904	      7.31060318	      0.28404010	      6.43313971	      6.53870413	      0.11412192	      8.30875280	     -1.42558910	     -7.49999904	      0.33820717	     -0.20320854	     -0.50353643	     43.35545777	      9.35617622	     62.94214821	    125.86216517	     81.55597985	     41.67695647	     -0.82221635	     76.97770105	    123.43006946	     55.62920210
      3.65000000	     -5.13058936	     -7.71531063	      6.29617856	      0.85427014	      0.98646635	     -0.00234373	     14.58740121	      5.72804523	      4.41746361	      7.34547609	      0.12820274	      2.64338823	     -8.89368734	     -7.49999925	      7.32226533	      0.28254702	      6.29535510	      6.61211713	      0.11540321	      8.26708596	     -1.33583915	     -7.49999925	      0.35864926	     -0.45943057	     -0.52309055	     43.65943135	      9.38117238	     62.86881002	    125.69827744	     84.61754299	     41.93080852	     -0.80128872	     77.00421526	    123.48650070	     54.83518891
